<?xml version="1.0" encoding="UTF-8"?><svg id="Livello_2" xmlns="http://www.w3.org/2000/svg" viewBox="0 0 1159.83 167.28"><defs><style>.cls-1{fill-rule:evenodd;}.cls-1,.cls-2{fill:#fff;}</style></defs><g id="Vector_Logo"><path class="cls-1" d="M247.73,163.65l-33.85-105.46c-.37-1.34-.98-2.46-1.84-3.38-.85-.91-1.89-1.37-3.11-1.37-2.68,0-4.51,1.65-5.49,4.93l-33.49,105.27-33.49-.23,36.78-118.41c2.44-7.67,6.98-13.58,13.63-17.72,6.65-4.14,14.12-6.21,22.42-6.21,15.25,0,26.23,6.75,32.94,20.25l1.28,2.56,27.64,87.94,1.1,2.01h72.84c3.53,0,6.49-1.33,8.87-4,2.38-2.66,3.57-5.86,3.57-9.58,0-3.1-.88-5.73-2.65-7.9-1.76-2.17-3.99-3.26-6.66-3.26h-45.46c-10.71,0-19.66-4.57-26.84-13.72-6.69-8.54-10.04-18.61-10.04-30.2s3.35-21.84,10.07-29.28c7.32-8.17,17.81-12.26,31.49-12.26h75.22v29.83h-73.81c-3.41,0-6.16,1.42-8.22,4.27-2.07,2.85-3.1,6.15-3.1,9.91,0,3.27.97,6.09,2.92,8.46,1.94,2.36,4.44,3.55,7.49,3.55h39.44c11.68,0,21.51,3.67,29.48,11.01,7.97,7.34,11.96,17.12,11.96,29.35s-3.44,21.83-10.3,30.27c-7.24,8.93-16.24,13.39-27.02,13.39h-103.76ZM31.28,60c0-1.82.45-3.49,1.37-5.01.91-1.52,2.16-2.4,3.74-2.64,1.83-.36,3.45.03,4.85,1.19,1.4,1.16,2.4,2.71,3.01,4.65l1.65,5.29,23.03,80.82c2.32,7.91,7.25,13.87,14.8,17.88,6.46,3.4,14.5,5.11,24.13,5.11,10.96,0,19.25-3.17,24.85-9.51,5.6-6.34,8.41-15.37,8.41-27.08V24.2h-31.64v107.6c0,2.56-1.41,4.08-4.21,4.57-1.59.36-3.02-.03-4.3-1.19-1.28-1.15-2.16-2.58-2.65-4.28l-3.12-9.67-20.13-70.97c-2.57-9-7.39-16.11-14.47-21.34-7.08-5.23-15.32-7.85-24.71-7.85-11.36,0-19.78,2.13-25.27,6.39C3.53,33.06,0,42.79,0,56.66v106.76h31.28V60h0ZM419.07,44.31c2.32-7.68,6.65-13.48,12.99-17.38,6.34-3.9,13.78-5.86,22.33-5.86s15.71,1.96,21.87,5.86c6.16,3.9,10.4,9.57,12.72,17.02l37.51,119.7h-31.48l-36.23-107.46c-.74-2.32-2.14-3.48-4.21-3.48-1.96,0-3.29,1.16-4.03,3.48l-35.5,107.46h-33.12l37.15-119.33h0Z"/><path class="cls-2" d="M928.81,163.58h-31.41v-66.66c0-11.94-2.52-22.06-7.56-30.36-5.76-9.46-13.77-14.19-24-14.19h-56.85v-30.83h56.77c17.92,0,32.11,4.5,42.58,13.49,8.22,7.06,14.04,16.67,17.45,28.85,2.25,7.99,3.37,16.67,3.37,26.06,0,2.17-.02,3.7-.06,4.6s-.14,1.69-.29,2.38v66.66Z"/><path class="cls-2" d="M1035.03,162.64h-46.42c-16.67,0-29.82-7.24-39.44-21.74-8.69-13.02-13.03-29.06-13.03-48.12s4.42-35.88,13.26-49.52c9.77-15.11,22.84-22.67,39.2-22.67h46.42c16.36,0,29.43,7.55,39.2,22.67,8.84,13.64,13.26,30.19,13.26,49.64s-4.3,35.07-12.91,48.01c-9.62,14.49-22.8,21.74-39.55,21.74ZM1029.79,131.82c7.45,0,13.42-4.33,17.92-13.01,4.11-7.9,6.17-17.42,6.17-28.58s-1.98-19.94-5.93-27.3c-4.42-8.21-10.47-12.31-18.15-12.31h-35.95c-7.68,0-13.73,4.1-18.15,12.31-3.96,7.36-5.93,16.46-5.93,27.3s2.02,20.76,6.05,28.58c4.5,8.68,10.51,13.01,18.03,13.01h35.95Z"/><path class="cls-2" d="M1159.83,30.95c0,19.28-15.49,31.9-31.91,31.9-18.57,0-31.2-14.05-31.2-30.71-.23-18.34,14.06-32.15,31.68-32.15,19.52,0,31.43,14.76,31.43,30.95ZM1109.58,32.15c0,10.95,8.1,19.52,18.57,19.52s18.81-8.81,18.81-20.48c0-8.8-5.24-20-18.81-20-12.37,0-18.57,10.71-18.57,20.96Z"/><path class="cls-2" d="M720.94,163.58h-25.63l-23.2-29.48c-.43-.66-1.13-.99-2.1-.99s-1.54.33-1.7.99l-23.69,29.48h-25.39c2.64-3.42,5.28-6.87,7.92-10.33,6.63-8.6,11.48-14.98,14.55-19.15,2.37-3.47,4.77-6.93,7.2-10.4l-29.67-39.94h25.39l23.69,29.55c.16.66.73.99,1.7.99s1.67-.33,2.1-.99l23.2-29.55h25.63l-29.03,39.94,29.03,39.88Z"/></g></svg>