<?xml version="1.0" encoding="UTF-8"?><svg id="Livello_2" xmlns="http://www.w3.org/2000/svg" viewBox="0 0 2848 1071.72"><defs><style>.cls-1{fill:#fff;}</style></defs><g id="Vector_Logo"><path class="cls-1" d="M258.45,367.88l-190.21-75.26v75.2H2.44v-100.18c0-24.07,5.94-43.53,17.81-58.38,13.85-17.31,34.21-25.97,61.1-25.97h81.87c7.58,0,13.43-2.59,17.56-7.76,4.12-5.17,6.18-11.29,6.18-18.34,0-7.55-1.98-13.87-5.94-18.96-4.45-5.74-10.39-8.62-17.81-8.62H2.44v-63.82h171.91c25.72,0,46.09,9.47,61.1,28.41,13.52,17.13,20.28,38.12,20.28,62.99s-6.76,45.62-20.28,62.74c-15.01,19.1-35.37,28.65-61.1,28.65h-41.56l125.66,48.01v71.28Z"/><path class="cls-1" d="M583.23,367.81h-71.49l-78.91-232.51c-.49-2.47-2.23-3.71-5.19-3.71-2.81,0-4.87,1.24-6.18,3.71l-77.17,232.51h-72.47c4.12-14.35,12.98-42.87,26.59-85.58,13.6-42.71,26.83-83.11,39.7-121.2,14.35-42.38,23.08-65.96,26.22-70.74,5.94-8.41,14.59-14.84,25.97-19.29s23.75-6.68,37.1-6.68,25.68,2.23,36.98,6.68c11.29,4.45,19.92,10.88,25.85,19.29,3.63,4.95,12.53,28.36,26.71,70.25,8.74,25.72,21.77,66.13,39.08,121.2,10.55,33.48,19.62,62.17,27.21,86.08Z"/><path class="cls-1" d="M771.71,248.59h-64.31c-16.49,0-28.28,5.53-35.37,16.57-4.78,7.59-7.17,17.07-7.17,28.45,0,4.12.04,6.6.13,7.42.08.83.28,1.65.61,2.47v64.31h-65.8v-100.18c0-24.07,5.94-43.53,17.81-58.38,13.85-17.31,34.21-25.97,61.1-25.97h81.87c7.58,0,13.43-2.59,17.56-7.76,4.12-5.17,6.18-11.29,6.18-18.34,0-7.55-1.98-13.87-5.94-18.96-4.45-5.74-10.39-8.62-17.81-8.62h-160.78v-63.82h171.91c25.72,0,46.09,9.47,61.1,28.41,13.52,17.13,20.28,38.12,20.28,62.99s-6.76,45.62-20.28,62.74c-15.01,19.1-35.37,28.65-61.1,28.65Z"/><path class="cls-1" d="M1053.94,248.59h-64.31c-16.49,0-28.28,5.53-35.37,16.57-4.78,7.59-7.17,17.07-7.17,28.45,0,4.12.04,6.6.13,7.42.08.83.28,1.65.61,2.47v64.31h-65.8v-100.18c0-24.07,5.94-43.53,17.81-58.38,13.85-17.31,34.21-25.97,61.1-25.97h81.87c7.58,0,13.43-2.59,17.56-7.76,4.12-5.17,6.18-11.29,6.18-18.34,0-7.55-1.98-13.87-5.94-18.96-4.45-5.74-10.39-8.62-17.81-8.62h-160.78v-63.82h171.91c25.72,0,46.09,9.47,61.1,28.41,13.52,17.13,20.28,38.12,20.28,62.99s-6.76,45.62-20.28,62.74c-15.01,19.1-35.37,28.65-61.1,28.65Z"/><path class="cls-1" d="M1359.42,367.81h-98.69c-35.46,0-63.41-15.41-83.85-46.22-18.47-27.68-27.7-61.79-27.7-102.32s9.4-76.28,28.2-105.28c20.78-32.13,48.56-48.2,83.36-48.2h98.69c34.79,0,62.58,16.07,83.36,48.2,18.8,29,28.2,64.18,28.2,105.53s-9.15,74.56-27.46,102.08c-20.45,30.81-48.48,46.22-84.1,46.22ZM1348.29,302.27c15.83,0,28.52-9.22,38.09-27.66,8.74-16.79,13.11-37.05,13.11-60.76s-4.21-42.4-12.62-58.05c-9.4-17.45-22.26-26.18-38.59-26.18h-76.43c-16.33,0-29.19,8.73-38.59,26.18-8.41,15.65-12.62,35-12.62,58.05s4.28,44.13,12.86,60.76c9.56,18.44,22.34,27.66,38.34,27.66h76.43Z"/><path class="cls-1" d="M1748.51,367.88l-190.21-75.26v75.2h-65.8v-100.18c0-24.07,5.94-43.53,17.81-58.38,13.85-17.31,34.21-25.97,61.1-25.97h81.87c7.58,0,13.43-2.59,17.56-7.76,4.12-5.17,6.18-11.29,6.18-18.34,0-7.55-1.98-13.87-5.94-18.96-4.45-5.74-10.39-8.62-17.81-8.62h-160.78v-63.82h171.91c25.72,0,46.09,9.47,61.1,28.41,13.52,17.13,20.28,38.12,20.28,62.99s-6.76,45.62-20.28,62.74c-15.01,19.1-35.37,28.65-61.1,28.65h-41.56l125.66,48.01v71.28Z"/><path class="cls-1" d="M1975.09,129.61h-68.27v238.2h-66.04v-238.2h-68.02v-63.82h202.34v63.82Z"/><path class="cls-1" d="M2061.91,367.81h-66.79V65.55h66.79v302.27ZM2051.03,22.01c0,6.76-2.64,11.79-7.92,15.09-4.62,2.81-10.97,4.21-19.05,4.21s-14.76-1.32-19.05-3.96c-5.28-3.13-7.92-8.24-7.92-15.34s2.51-12.53,7.55-16.33c5.02-3.79,11.5-5.69,19.41-5.69s14.18,1.9,19.29,5.69c5.11,3.8,7.67,9.24,7.67,16.33ZM2041.38,21.03c0-4.45-1.57-7.63-4.7-9.52-3.14-1.89-7.34-2.84-12.62-2.84s-9.69.91-12.74,2.72c-3.05,1.82-4.57,5.03-4.57,9.65,0,4.29,1.44,7.01,4.33,8.16,2.88,1.16,7.21,1.73,12.98,1.73,6.1,0,10.22-.41,12.37-1.24,3.29-1.32,4.95-4.21,4.95-8.66Z"/><path class="cls-1" d="M1066.56,721.46c0,19.13-7.92,34.96-23.75,47.49-14.84,11.71-32.57,17.56-53.18,17.56-17.81,0-33.81-4.7-47.99-14.1-15.83-10.55-27.05-25.64-33.64-45.27-1.32-3.96-7.34-25.39-18.06-64.31-9.73-35.29-18.23-62.91-25.48-82.86-10.06-27.21-18.23-40.4-24.49-39.58-4.13.99-7.01,2.68-8.66,5.07-1.65,2.39-2.47,5.73-2.47,10.02v226.82h-66.79v-242.41c0-22.1,8.33-38.92,24.98-50.46,14.35-9.89,32.73-14.84,55.16-14.84,30.01,0,53.84,15.09,71.49,45.27,11.87,20.12,23.17,52.69,33.89,97.7,11.87,49.47,20.53,80.14,25.97,92.02,2.97,6.43,7.5,9.65,13.6,9.65,3.29,0,6.14-1.32,8.54-3.96,2.38-2.64,3.58-6.27,3.58-10.88v-226.58h67.28v243.64Z"/><path class="cls-1" d="M1392.57,782.31h-71.49l-78.91-232.51c-.49-2.47-2.23-3.71-5.19-3.71-2.81,0-4.87,1.24-6.18,3.71l-77.17,232.51h-72.47c4.12-14.35,12.98-42.87,26.59-85.58,13.6-42.71,26.83-83.11,39.7-121.2,14.35-42.38,23.08-65.96,26.22-70.74,5.94-8.41,14.59-14.84,25.97-19.29,11.38-4.45,23.75-6.68,37.1-6.68s25.68,2.23,36.98,6.68,19.92,10.88,25.85,19.29c3.63,4.95,12.53,28.36,26.71,70.25,8.74,25.72,21.77,66.13,39.08,121.2,10.55,33.48,19.62,62.17,27.21,86.08Z"/><path class="cls-1" d="M1599.36,544.11h-68.27v238.2h-66.04v-238.2h-68.02v-63.82h202.34v63.82Z"/><path class="cls-1" d="M1873.67,674.06c0,34.93-13.53,62.78-40.57,83.54-24.41,18.78-54.26,28.17-89.54,28.17s-63.16-9.23-86.57-27.68c-26.22-20.6-39.33-48.61-39.33-84.04v-193.77h65.55v182.85c0,15.82,6.76,28.5,20.28,38.05,12.37,8.73,27.29,13.1,44.77,13.1s31-4.2,42.54-12.6c12.86-9.39,19.29-22.23,19.29-38.54v-182.85h63.57v193.77Z"/><path class="cls-1" d="M2159.86,782.38l-190.21-75.26v75.2h-65.8v-100.18c0-24.07,5.94-43.53,17.81-58.38,13.85-17.31,34.21-25.97,61.1-25.97h81.87c7.58,0,13.43-2.59,17.56-7.76,4.12-5.17,6.18-11.29,6.18-18.34,0-7.55-1.98-13.87-5.94-18.96-4.45-5.74-10.39-8.62-17.81-8.62h-160.78v-63.82h171.91c25.72,0,46.09,9.47,61.1,28.41,13.52,17.13,20.28,38.12,20.28,62.99s-6.76,45.62-20.28,62.74c-15.01,19.1-35.37,28.65-61.1,28.65h-41.56l125.66,48.01v71.28Z"/><path class="cls-1" d="M2484.64,782.31h-71.49l-78.91-232.51c-.49-2.47-2.23-3.71-5.19-3.71-2.81,0-4.87,1.24-6.18,3.71l-77.17,232.51h-72.47c4.12-14.35,12.98-42.87,26.59-85.58,13.6-42.71,26.83-83.11,39.7-121.2,14.35-42.38,23.08-65.96,26.22-70.74,5.94-8.41,14.59-14.84,25.97-19.29,11.38-4.45,23.75-6.68,37.1-6.68s25.68,2.23,36.98,6.68c11.29,4.45,19.92,10.88,25.85,19.29,3.63,4.95,12.53,28.36,26.71,70.25,8.74,25.72,21.77,66.13,39.08,121.2,10.55,33.48,19.62,62.17,27.21,86.08Z"/><path class="cls-1" d="M2753.51,782.31h-120.46c-38.09,0-68.27-9.55-90.53-28.67-17.48-14.99-29.85-35.42-37.1-61.29-4.78-16.97-7.17-35.43-7.17-55.36,0-4.61.04-7.87.12-9.76.08-1.89.29-3.58.62-5.07v-141.86h66.79v141.83c0,25.53,5.36,47.03,16.08,64.49,12.37,20.1,29.44,30.15,51.2,30.15h120.46v65.55Z"/><path class="cls-1" d="M2848,782.31h-66.79v-302.27h66.79v302.27ZM2837.12,436.51c0,6.76-2.64,11.79-7.92,15.09-4.62,2.81-10.97,4.21-19.05,4.21s-14.76-1.32-19.05-3.96c-5.28-3.13-7.92-8.24-7.92-15.34s2.51-12.53,7.55-16.33c5.02-3.79,11.5-5.69,19.41-5.69s14.18,1.9,19.29,5.69c5.11,3.8,7.67,9.24,7.67,16.33ZM2827.47,435.52c0-4.45-1.57-7.63-4.7-9.52-3.14-1.89-7.34-2.84-12.62-2.84s-9.69.91-12.74,2.72c-3.05,1.82-4.57,5.03-4.57,9.65,0,4.29,1.44,7.01,4.33,8.16,2.88,1.16,7.21,1.73,12.98,1.73,6.1,0,10.22-.41,12.37-1.24,3.29-1.32,4.95-4.21,4.95-8.66Z"/><path class="cls-1" d="M42.31,1070.52H0v-86.54h42.31c10.02,0,18,4.58,23.96,13.74,5.39,8.26,8.08,18.34,8.08,30.24s-2.65,21.39-7.94,29.32c-5.91,8.83-13.94,13.24-24.1,13.24ZM39.12,1051.74c4.54,0,8.17-2.64,10.91-7.93,2.5-4.81,3.76-10.61,3.76-17.41s-1.2-12.15-3.61-16.63c-2.69-5-6.38-7.5-11.06-7.5h-19.99v49.47h19.99Z"/><path class="cls-1" d="M100,1070.52h-19.14v-86.61h19.14v86.61ZM96.88,971.44c0,1.94-.76,3.38-2.27,4.32-1.32.8-3.14,1.2-5.46,1.2s-4.23-.38-5.46-1.13c-1.51-.9-2.27-2.36-2.27-4.39s.72-3.59,2.16-4.68c1.44-1.09,3.29-1.63,5.56-1.63s4.06.54,5.53,1.63c1.46,1.09,2.2,2.65,2.2,4.68ZM94.12,971.15c0-1.28-.45-2.18-1.35-2.73-.9-.54-2.1-.81-3.61-.81s-2.78.26-3.65.78c-.87.52-1.31,1.44-1.31,2.76,0,1.23.41,2.01,1.24,2.34.82.33,2.07.5,3.72.5,1.75,0,2.93-.12,3.54-.35.94-.38,1.42-1.2,1.42-2.48Z"/><path class="cls-1" d="M241.18,1070.52h-19.7c-1.56-6.05-3.1-12.1-4.61-18.14-3.69-14.03-6.92-25.21-9.71-33.52-3.97-12-6.87-17.88-8.72-17.65-1.28.28-2.14.77-2.59,1.45-.45.68-.67,1.64-.67,2.87v47.56c0,5.48-2.27,10.02-6.8,13.61-4.25,3.36-9.33,5.03-15.24,5.03-5.1,0-9.69-1.35-13.75-4.04-4.54-3.02-7.75-7.35-9.64-12.97-.38-1.13-2.1-7.28-5.17-18.43-2.79-10.11-5.22-18.02-7.3-23.74-2.88-7.8-5.22-11.57-7.02-11.34-1.18.28-2.01.77-2.48,1.45-.47.68-.71,1.64-.71,2.87v64.99h-19.14v-69.46c0-6.33,2.39-11.15,7.16-14.46,4.11-2.83,9.38-4.25,15.8-4.25,8.6,0,15.43,4.32,20.48,12.97,3.4,5.77,6.64,15.1,9.71,28,3.4,14.17,5.88,22.96,7.44,26.37.47,1.09,1.14,1.94,2.02,2.55.87.62,1.78.92,2.73.92.85,0,1.52-.28,2.02-.85.49-.57.74-1.44.74-2.62v-48.62c0-6.33,2.39-11.15,7.16-14.46,4.11-2.83,9.38-4.25,15.8-4.25,5.24,0,9.87,1.84,13.89,5.53,4.3,3.97,7.56,9.85,9.78,17.65l18.5,64.99Z"/><path class="cls-1" d="M313.4,1070.52h-49.26c-7.37,0-13.21-2.76-17.51-8.29-3.88-4.96-5.81-11.06-5.81-18.29,0-6.52,1.63-12.17,4.89-16.94-3.26-4.76-4.89-10.35-4.89-16.77,0-7.08,1.94-13.09,5.81-18.04,4.3-5.47,10.13-8.21,17.51-8.21h49.26v18.29h-46.07c-2.08,0-3.72.79-4.93,2.36-1.2,1.58-1.81,3.42-1.81,5.54s.58,3.83,1.74,5.29c1.16,1.46,2.82,2.19,5,2.19h46.07v18.71h-48.69c-1.28.57-2.28,1.56-3.01,2.98s-1.1,2.98-1.1,4.68c0,2.13.58,3.97,1.74,5.53,1.16,1.56,2.82,2.34,5,2.34h46.07v18.64Z"/><path class="cls-1" d="M408.59,1053.08c0,5.48-2.27,10.02-6.8,13.61-4.25,3.36-9.33,5.03-15.24,5.03-5.1,0-9.69-1.35-13.75-4.04-4.54-3.02-7.75-7.35-9.64-12.97-.38-1.13-2.1-7.28-5.17-18.43-2.79-10.11-5.22-18.02-7.3-23.74-2.88-7.8-5.22-11.57-7.02-11.34-1.18.28-2.01.77-2.48,1.45-.47.68-.71,1.64-.71,2.87v64.99h-19.14v-69.46c0-6.33,2.39-11.15,7.16-14.46,4.11-2.83,9.38-4.25,15.8-4.25,8.6,0,15.43,4.32,20.48,12.97,3.4,5.77,6.64,15.1,9.71,28,3.4,14.17,5.88,22.96,7.44,26.37.85,1.84,2.15,2.76,3.9,2.76.94,0,1.76-.38,2.45-1.13.68-.76,1.03-1.79,1.03-3.12v-64.92h19.28v69.81Z"/><path class="cls-1" d="M489.45,1002.27h-46.07c-2.08,0-3.72.79-4.93,2.36-1.2,1.58-1.81,3.42-1.81,5.54s.58,3.83,1.74,5.29c1.16,1.46,2.82,2.19,5,2.19h27.14c7.32,0,13.11,2.74,17.36,8.22,3.83,4.91,5.74,10.99,5.74,18.21s-1.91,13.25-5.74,18.21c-4.25,5.48-10.04,8.22-17.36,8.22h-49.4v-18.43h46.28c1.98,0,3.54-.81,4.68-2.45,1.13-1.63,1.7-3.51,1.7-5.63s-.54-3.93-1.63-5.42c-1.09-1.49-2.67-2.23-4.75-2.23h-27.22c-7.37,0-13.21-2.71-17.51-8.14-3.88-4.86-5.81-10.87-5.81-18.05s1.94-13.07,5.81-17.98c4.35-5.47,10.18-8.21,17.51-8.21h49.26v18.29Z"/><path class="cls-1" d="M516.53,1070.52h-19.14v-86.61h19.14v86.61ZM513.41,971.44c0,1.94-.76,3.38-2.27,4.32-1.32.8-3.14,1.2-5.46,1.2s-4.23-.38-5.46-1.13c-1.51-.9-2.27-2.36-2.27-4.39s.72-3.59,2.16-4.68c1.44-1.09,3.29-1.63,5.56-1.63s4.06.54,5.53,1.63c1.46,1.09,2.2,2.65,2.2,4.68ZM510.65,971.15c0-1.28-.45-2.18-1.35-2.73-.9-.54-2.1-.81-3.61-.81s-2.78.26-3.65.78c-.87.52-1.31,1.44-1.31,2.76,0,1.23.41,2.01,1.24,2.34.82.33,2.07.5,3.72.5,1.75,0,2.93-.12,3.54-.35.94-.38,1.42-1.2,1.42-2.48Z"/><path class="cls-1" d="M581.02,1070.52h-28.28c-10.16,0-18.17-4.41-24.03-13.24-5.29-7.93-7.94-17.7-7.94-29.32s2.69-21.86,8.08-30.17c5.95-9.21,13.91-13.81,23.88-13.81h28.28c9.97,0,17.93,4.6,23.88,13.81,5.39,8.31,8.08,18.39,8.08,30.24s-2.62,21.36-7.87,29.25c-5.86,8.83-13.89,13.24-24.1,13.24ZM577.83,1051.74c4.54,0,8.17-2.64,10.91-7.93,2.5-4.81,3.76-10.61,3.76-17.41s-1.2-12.15-3.61-16.63c-2.69-5-6.38-7.5-11.06-7.5h-21.9c-4.68,0-8.36,2.5-11.06,7.5-2.41,4.48-3.61,10.03-3.61,16.63s1.23,12.65,3.69,17.41c2.74,5.29,6.4,7.93,10.99,7.93h21.9Z"/><path class="cls-1" d="M705.76,1053.08c0,5.48-2.27,10.02-6.8,13.61-4.25,3.36-9.33,5.03-15.24,5.03-5.1,0-9.69-1.35-13.75-4.04-4.54-3.02-7.75-7.35-9.64-12.97-.38-1.13-2.1-7.28-5.17-18.43-2.79-10.11-5.22-18.02-7.3-23.74-2.88-7.8-5.22-11.57-7.02-11.34-1.18.28-2.01.77-2.48,1.45-.47.68-.71,1.64-.71,2.87v64.99h-19.14v-69.46c0-6.33,2.39-11.15,7.16-14.46,4.11-2.83,9.38-4.25,15.8-4.25,8.6,0,15.43,4.32,20.48,12.97,3.4,5.77,6.64,15.1,9.71,28,3.4,14.17,5.88,22.96,7.44,26.37.85,1.84,2.15,2.76,3.9,2.76.94,0,1.76-.38,2.45-1.13.68-.76,1.03-1.79,1.03-3.12v-64.92h19.28v69.81Z"/><path class="cls-1" d="M733,1070.52h-19.14v-86.61h19.14v86.61ZM729.88,971.44c0,1.94-.76,3.38-2.27,4.32-1.32.8-3.14,1.2-5.46,1.2s-4.23-.38-5.46-1.13c-1.51-.9-2.27-2.36-2.27-4.39s.72-3.59,2.16-4.68c1.44-1.09,3.29-1.63,5.56-1.63s4.06.54,5.53,1.63c1.46,1.09,2.2,2.65,2.2,4.68ZM727.12,971.15c0-1.28-.45-2.18-1.35-2.73-.9-.54-2.1-.81-3.61-.81s-2.78.26-3.65.78c-.87.52-1.31,1.44-1.31,2.76,0,1.23.41,2.01,1.24,2.34.82.33,2.07.5,3.72.5,1.75,0,2.93-.12,3.54-.35.94-.38,1.42-1.2,1.42-2.48Z"/><path class="cls-1" d="M856.53,1070.52h-49.26c-7.37,0-13.21-2.76-17.51-8.29-3.88-4.96-5.81-11.06-5.81-18.29,0-6.52,1.63-12.17,4.89-16.94-3.26-4.76-4.89-10.35-4.89-16.77,0-7.08,1.94-13.09,5.81-18.04,4.3-5.47,10.13-8.21,17.51-8.21h49.26v18.29h-46.07c-2.08,0-3.72.79-4.93,2.36-1.2,1.58-1.81,3.42-1.81,5.54s.58,3.83,1.74,5.29c1.16,1.46,2.82,2.19,5,2.19h46.07v18.71h-48.69c-1.28.57-2.28,1.56-3.01,2.98s-1.1,2.98-1.1,4.68c0,2.13.58,3.97,1.74,5.53,1.16,1.56,2.82,2.34,5,2.34h46.07v18.64Z"/><path class="cls-1" d="M949.45,1070.52h-42.31v-86.54h42.31c10.02,0,18,4.58,23.96,13.74,5.39,8.26,8.08,18.34,8.08,30.24s-2.65,21.39-7.94,29.32c-5.91,8.83-13.94,13.24-24.1,13.24ZM946.26,1051.74c4.54,0,8.17-2.64,10.91-7.93,2.5-4.81,3.76-10.61,3.76-17.41s-1.2-12.15-3.61-16.63c-2.69-5-6.38-7.5-11.06-7.5h-19.99v49.47h19.99Z"/><path class="cls-1" d="M1007.14,1070.52h-19.14v-86.61h19.14v86.61ZM1004.02,971.44c0,1.94-.76,3.38-2.27,4.32-1.32.8-3.14,1.2-5.46,1.2s-4.23-.38-5.46-1.13c-1.51-.9-2.27-2.36-2.27-4.39s.72-3.59,2.16-4.68c1.44-1.09,3.29-1.63,5.56-1.63s4.06.54,5.53,1.63c1.46,1.09,2.2,2.65,2.2,4.68ZM1001.26,971.15c0-1.28-.45-2.18-1.35-2.73-.9-.54-2.1-.81-3.61-.81s-2.78.26-3.65.78c-.87.52-1.31,1.44-1.31,2.76,0,1.23.41,2.01,1.24,2.34.82.33,2.07.5,3.72.5,1.75,0,2.93-.12,3.54-.35.94-.38,1.42-1.2,1.42-2.48Z"/><path class="cls-1" d="M1088.01,1002.27h-46.07c-2.08,0-3.72.79-4.93,2.36-1.2,1.58-1.81,3.42-1.81,5.54s.58,3.83,1.74,5.29c1.16,1.46,2.82,2.19,5,2.19h27.14c7.32,0,13.11,2.74,17.36,8.22,3.83,4.91,5.74,10.99,5.74,18.21s-1.91,13.25-5.74,18.21c-4.25,5.48-10.04,8.22-17.36,8.22h-49.4v-18.43h46.28c1.98,0,3.54-.81,4.68-2.45,1.13-1.63,1.7-3.51,1.7-5.63s-.54-3.93-1.63-5.42c-1.09-1.49-2.67-2.23-4.75-2.23h-27.22c-7.37,0-13.21-2.71-17.51-8.14-3.88-4.86-5.81-10.87-5.81-18.05s1.94-13.07,5.81-17.98c4.35-5.47,10.18-8.21,17.51-8.21h49.26v18.29Z"/><path class="cls-1" d="M1151.08,1002.27h-19.56v68.25h-18.92v-68.25h-19.49v-18.29h57.97v18.29Z"/><path class="cls-1" d="M1242.3,1070.52h-20.48l-22.61-66.62c-.14-.71-.64-1.06-1.49-1.06-.8,0-1.4.35-1.77,1.06l-22.11,66.62h-20.77c1.18-4.11,3.72-12.28,7.62-24.52,3.9-12.24,7.69-23.81,11.37-34.73,4.11-12.14,6.61-18.9,7.51-20.27,1.7-2.41,4.18-4.25,7.44-5.53,3.26-1.28,6.8-1.91,10.63-1.91s7.36.64,10.59,1.91,5.71,3.12,7.41,5.53c1.04,1.42,3.59,8.13,7.65,20.13,2.5,7.37,6.24,18.95,11.2,34.73,3.02,9.59,5.62,17.81,7.8,24.66Z"/><path class="cls-1" d="M1333.65,1053.08c0,5.48-2.27,10.02-6.8,13.61-4.25,3.36-9.33,5.03-15.24,5.03-5.1,0-9.69-1.35-13.75-4.04-4.54-3.02-7.75-7.35-9.64-12.97-.38-1.13-2.1-7.28-5.17-18.43-2.79-10.11-5.22-18.02-7.3-23.74-2.88-7.8-5.22-11.57-7.02-11.34-1.18.28-2.01.77-2.48,1.45-.47.68-.71,1.64-.71,2.87v64.99h-19.14v-69.46c0-6.33,2.39-11.15,7.16-14.46,4.11-2.83,9.38-4.25,15.8-4.25,8.6,0,15.43,4.32,20.48,12.97,3.4,5.77,6.64,15.1,9.71,28,3.4,14.17,5.88,22.96,7.44,26.37.85,1.84,2.15,2.76,3.9,2.76.94,0,1.76-.38,2.45-1.13.68-.76,1.03-1.79,1.03-3.12v-64.92h19.28v69.81Z"/><path class="cls-1" d="M1417.43,1070.52h-58.19c-5.48,0-9.97-2.19-13.47-6.58-3.26-4.1-4.89-9.04-4.89-14.79,0-5.1,1.32-9.68,3.97-13.74,2.93-4.48,7.16-7.67,12.69-9.56l38.91-15.57c1.37,0,2.47-.45,3.3-1.35.82-.9,1.19-1.75,1.1-2.55-.43-1.51-.71-2.36-.85-2.55-.33-.43-1.02-.64-2.06-.64h-55.28v-19.21h59.75c6.19,0,11.1,2.03,14.74,6.09,3.31,3.68,4.96,8.31,4.96,13.88,0,5.05-1.44,9.68-4.32,13.87-3.17,4.58-7.51,7.79-13.04,9.63l-42.1,17.06c-.99,0-1.74.27-2.23.82-.49.54-.74,1.22-.74,2.02,0,1.04.38,1.96,1.13,2.76.76.8,1.84,1.2,3.26,1.2h53.37v19.21Z"/><path class="cls-1" d="M1500.49,1070.52h-49.26c-7.37,0-13.21-2.76-17.51-8.29-3.88-4.96-5.81-11.06-5.81-18.29,0-6.52,1.63-12.17,4.89-16.94-3.26-4.76-4.89-10.35-4.89-16.77,0-7.08,1.94-13.09,5.81-18.04,4.3-5.47,10.13-8.21,17.51-8.21h49.26v18.29h-46.07c-2.08,0-3.72.79-4.93,2.36-1.2,1.58-1.81,3.42-1.81,5.54s.58,3.83,1.74,5.29c1.16,1.46,2.82,2.19,5,2.19h46.07v18.71h-48.69c-1.28.57-2.28,1.56-3.01,2.98s-1.1,2.98-1.1,4.68c0,2.13.58,3.97,1.74,5.53,1.16,1.56,2.82,2.34,5,2.34h46.07v18.64Z"/><path class="cls-1" d="M1607.65,1070.52h-28.28c-10.16,0-18.17-4.41-24.03-13.24-5.29-7.93-7.94-17.7-7.94-29.32s2.69-21.86,8.08-30.17c5.95-9.21,13.91-13.81,23.88-13.81h28.28c9.97,0,17.93,4.6,23.88,13.81,5.39,8.31,8.08,18.39,8.08,30.24s-2.62,21.36-7.87,29.25c-5.86,8.83-13.89,13.24-24.1,13.24ZM1604.46,1051.74c4.54,0,8.17-2.64,10.91-7.93,2.5-4.81,3.76-10.61,3.76-17.41s-1.2-12.15-3.61-16.63c-2.69-5-6.38-7.5-11.06-7.5h-21.9c-4.68,0-8.36,2.5-11.06,7.5-2.41,4.48-3.61,10.03-3.61,16.63s1.23,12.65,3.69,17.41c2.74,5.29,6.4,7.93,10.99,7.93h21.9Z"/><path class="cls-1" d="M1719.14,1070.54l-54.5-21.56v21.55h-18.85v-28.7c0-6.9,1.7-12.47,5.1-16.73,3.97-4.96,9.8-7.44,17.51-7.44h23.46c2.17,0,3.85-.74,5.03-2.22,1.18-1.48,1.77-3.23,1.77-5.25,0-2.16-.57-3.97-1.7-5.43-1.28-1.65-2.98-2.47-5.1-2.47h-46.07v-18.29h49.26c7.37,0,13.2,2.71,17.51,8.14,3.87,4.91,5.81,10.92,5.81,18.05s-1.94,13.07-5.81,17.98c-4.3,5.48-10.13,8.21-17.51,8.21h-11.91l36,13.76v20.42Z"/><path class="cls-1" d="M1794.83,1027.28c1.75,2.27,3.06,4.82,3.93,7.65.87,2.83,1.31,5.86,1.31,9.07,0,7.09-1.96,13.14-5.88,18.14-4.35,5.58-10.21,8.36-17.58,8.36h-49.26v-18.07h46.07c2.13,0,3.83-.83,5.1-2.48,1.13-1.46,1.7-3.28,1.7-5.46s-.54-3.87-1.63-5.24c-1.23-1.56-2.95-2.34-5.17-2.34h-46.07v-19.28h46.07c2.17,0,3.85-.74,5.03-2.22,1.18-1.48,1.77-3.23,1.77-5.25,0-2.16-.57-3.97-1.7-5.43-1.28-1.65-2.98-2.47-5.1-2.47h-46.07v-18.29h49.26c7.32,0,13.2,2.83,17.65,8.49,4.02,5.14,6.02,11.28,6.02,18.4,0,3.16-.46,6.16-1.38,8.99-.92,2.83-2.28,5.31-4.08,7.43Z"/><path class="cls-1" d="M1826.72,1070.52h-19.14v-86.61h19.14v86.61ZM1823.61,971.44c0,1.94-.76,3.38-2.27,4.32-1.32.8-3.14,1.2-5.46,1.2s-4.23-.38-5.46-1.13c-1.51-.9-2.27-2.36-2.27-4.39s.72-3.59,2.16-4.68c1.44-1.09,3.29-1.63,5.56-1.63s4.06.54,5.53,1.63c1.46,1.09,2.2,2.65,2.2,4.68ZM1820.84,971.15c0-1.28-.45-2.18-1.35-2.73-.9-.54-2.1-.81-3.61-.81s-2.78.26-3.65.78c-.87.52-1.31,1.44-1.31,2.76,0,1.23.41,2.01,1.24,2.34.82.33,2.07.5,3.72.5,1.75,0,2.93-.12,3.54-.35.94-.38,1.42-1.2,1.42-2.48Z"/><path class="cls-1" d="M1889.8,1002.27h-19.56v68.25h-18.92v-68.25h-19.49v-18.29h57.97v18.29Z"/><path class="cls-1" d="M1981.02,1070.52h-20.48l-22.61-66.62c-.14-.71-.64-1.06-1.49-1.06-.8,0-1.4.35-1.77,1.06l-22.11,66.62h-20.77c1.18-4.11,3.72-12.28,7.62-24.52,3.9-12.24,7.69-23.81,11.37-34.73,4.11-12.14,6.61-18.9,7.51-20.27,1.7-2.41,4.18-4.25,7.44-5.53s6.8-1.91,10.63-1.91,7.36.64,10.59,1.91c3.24,1.28,5.71,3.12,7.41,5.53,1.04,1.42,3.59,8.13,7.65,20.13,2.5,7.37,6.24,18.95,11.2,34.73,3.02,9.59,5.62,17.81,7.8,24.66Z"/><path class="cls-1" d="M2058.06,1070.52h-34.52c-10.91,0-19.56-2.74-25.94-8.22-5.01-4.29-8.55-10.15-10.63-17.56-1.37-4.86-2.06-10.15-2.06-15.86,0-1.32.01-2.25.03-2.8s.08-1.03.18-1.45v-40.65h19.14v40.64c0,7.32,1.53,13.48,4.61,18.48,3.54,5.76,8.43,8.64,14.67,8.64h34.52v18.78Z"/><path class="cls-1" d="M2085.13,1070.52h-19.14v-86.61h19.14v86.61ZM2082.01,971.44c0,1.94-.76,3.38-2.27,4.32-1.32.8-3.14,1.2-5.46,1.2s-4.23-.38-5.46-1.13c-1.51-.9-2.27-2.36-2.27-4.39s.72-3.59,2.16-4.68c1.44-1.09,3.29-1.63,5.56-1.63s4.06.54,5.53,1.63c1.46,1.09,2.2,2.65,2.2,4.68ZM2079.25,971.15c0-1.28-.45-2.18-1.35-2.73-.9-.54-2.1-.81-3.61-.81s-2.78.26-3.65.78c-.87.52-1.31,1.44-1.31,2.76,0,1.23.41,2.01,1.24,2.34.82.33,2.07.5,3.72.5,1.75,0,2.93-.12,3.54-.35.94-.38,1.42-1.2,1.42-2.48Z"/></g></svg>